<svg width="53" height="57" viewBox="0 0 53 57" fill="none" xmlns="http://www.w3.org/2000/svg">
<path d="M52.4015 27.8203C52.4015 42.933 40.7595 55.1406 26.4508 55.1406C12.142 55.1406 0.5 42.933 0.5 27.8203C0.5 12.7076 12.142 0.5 26.4508 0.5C40.7595 0.5 52.4015 12.7076 52.4015 27.8203Z" stroke="#70AFEA"/>
<g filter="url(#filter0_d_45_1456)">
<path d="M26.4508 25.8331V47.6919" stroke="#70AFEA" stroke-linecap="round"/>
</g>
<ellipse cx="11.3359" cy="21.8589" rx="3.77868" ry="3.97433" fill="#70AFEA"/>
<ellipse cx="17.9488" cy="13.9101" rx="2.83401" ry="3.97433" fill="#70AFEA"/>
<ellipse cx="26.4508" cy="6.95511" rx="3.77868" ry="2.98075" fill="#70AFEA"/>
<ellipse cx="34.9528" cy="13.9101" rx="2.83401" ry="3.97433" fill="#70AFEA"/>
<ellipse cx="40.6208" cy="21.8589" rx="2.83401" ry="3.97433" fill="#70AFEA"/>
<ellipse cx="26.4508" cy="48.6855" rx="3.77868" ry="2.98075" fill="#70AFEA"/>
<ellipse cx="40.6208" cy="21.8589" rx="2.83401" ry="3.97433" fill="#70AFEA"/>
<defs>
<filter id="filter0_d_45_1456" x="21.9508" y="25.3331" width="9" height="30.8588" filterUnits="userSpaceOnUse" color-interpolation-filters="sRGB">
<feFlood flood-opacity="0" result="BackgroundImageFix"/>
<feColorMatrix in="SourceAlpha" type="matrix" values="0 0 0 0 0 0 0 0 0 0 0 0 0 0 0 0 0 0 127 0" result="hardAlpha"/>
<feOffset dy="4"/>
<feGaussianBlur stdDeviation="2"/>
<feComposite in2="hardAlpha" operator="out"/>
<feColorMatrix type="matrix" values="0 0 0 0 0 0 0 0 0 0 0 0 0 0 0 0 0 0 0.25 0"/>
<feBlend mode="normal" in2="BackgroundImageFix" result="effect1_dropShadow_45_1456"/>
<feBlend mode="normal" in="SourceGraphic" in2="effect1_dropShadow_45_1456" result="shape"/>
</filter>
</defs>
</svg>
