<svg width="132" height="132" viewBox="0 0 132 132" fill="none" xmlns="http://www.w3.org/2000/svg">
<path d="M73.4191 16.9428C67.3322 1.39644 51.9049 -0.715448 44.9522 0.171899C18.5054 3.25987 18.1031 27.0141 21.2078 38.5053C16.2665 37.0855 5.28205 38.7183 0.874261 56.6072C-3.53353 74.4961 9.79479 82.9614 17.0099 84.9579H91.6537C105.778 87.8418 133.606 86.9811 131.927 60.4671C130.248 33.9532 110.588 31.9389 100.968 34.246C94.1462 13.5886 79.7597 14.1032 73.4191 16.9428Z" fill="#748887"/>
<path d="M42.8851 83.8653C41.4509 77.1265 34.4646 63.4081 31.1508 57.3913C30.4445 59.1462 27.5979 65.5742 21.8611 77.2468C16.1243 88.9195 25.6639 93.743 31.1508 94.6956C35.6598 93.8934 44.3193 90.6042 42.8851 83.8653Z" fill="#6EB8FD"/>
<path d="M111.755 83.8653C110.321 77.1265 103.334 63.4081 100.02 57.3913C99.3141 59.1462 96.4675 65.5742 90.7307 77.2468C84.9939 88.9195 94.5335 93.743 100.02 94.6956C104.529 93.8934 113.189 90.6042 111.755 83.8653Z" fill="#6EB8FD"/>
<path d="M74.4503 119.504C73.0161 111.728 66.0298 95.899 62.7159 88.9565C62.0097 90.9814 59.163 98.3983 53.4263 111.867C47.6895 125.335 57.229 130.901 62.7159 132C67.225 131.074 75.8845 127.279 74.4503 119.504Z" fill="#6EB8FD"/>
</svg>
