<svg width="1440" height="1036" viewBox="0 0 1440 1036" fill="none" xmlns="http://www.w3.org/2000/svg">
<path d="M0 0H1440V1036H0V0Z" fill="url(#paint0_linear_55_1852)"/>
<path d="M112.218 212.37L132.656 173.618L153.094 134.866" stroke="white" stroke-opacity="0.25" stroke-width="4" stroke-linecap="round"/>
<path d="M67.9036 961.504L88.3414 922.752L108.779 884" stroke="white" stroke-opacity="0.25" stroke-width="4" stroke-linecap="round"/>
<path d="M723.904 540.504L744.341 501.752L764.779 463" stroke="white" stroke-opacity="0.25" stroke-width="4" stroke-linecap="round"/>
<path d="M819.904 715.504L840.341 676.752L860.779 638" stroke="white" stroke-opacity="0.25" stroke-width="4" stroke-linecap="round"/>
<path d="M944.904 885.504L965.341 846.752L985.779 808" stroke="white" stroke-opacity="0.25" stroke-width="4" stroke-linecap="round"/>
<path d="M1097.9 184.504L1118.34 145.752L1138.78 107" stroke="white" stroke-opacity="0.25" stroke-width="4" stroke-linecap="round"/>
<path d="M176.904 654.504L197.341 615.752L217.779 577" stroke="white" stroke-opacity="0.25" stroke-width="4" stroke-linecap="round"/>
<path d="M176.904 654.504L197.341 615.752L217.779 577" stroke="white" stroke-opacity="0.25" stroke-width="4" stroke-linecap="round"/>
<path d="M33.9036 809.504L54.3414 770.752L74.7791 732" stroke="white" stroke-opacity="0.25" stroke-width="4" stroke-linecap="round"/>
<path d="M699.904 249.504L720.341 210.752L740.779 172" stroke="white" stroke-opacity="0.25" stroke-width="4" stroke-linecap="round"/>
<path d="M1171.9 825.504L1192.34 786.752L1212.78 748" stroke="white" stroke-opacity="0.25" stroke-width="4" stroke-linecap="round"/>
<path d="M462.904 159.504L483.341 120.752L503.779 82" stroke="white" stroke-opacity="0.25" stroke-width="4" stroke-linecap="round"/>
<path d="M1053.9 556.504L1074.34 517.752L1094.78 479" stroke="white" stroke-opacity="0.25" stroke-width="4" stroke-linecap="round"/>
<path d="M1053.9 556.504L1074.34 517.752L1094.78 479" stroke="white" stroke-opacity="0.25" stroke-width="4" stroke-linecap="round"/>
<path d="M1306.9 120.504L1327.34 81.752L1347.78 43" stroke="white" stroke-opacity="0.25" stroke-width="4" stroke-linecap="round"/>
<path d="M897.904 308.504L918.341 269.752L938.779 231" stroke="white" stroke-opacity="0.25" stroke-width="4" stroke-linecap="round"/>
<path d="M111.904 447.504L132.341 408.752L152.779 370" stroke="white" stroke-opacity="0.25" stroke-width="4" stroke-linecap="round"/>
<path d="M383.904 843.504L404.341 804.752L424.779 766" stroke="white" stroke-opacity="0.25" stroke-width="4" stroke-linecap="round"/>
<path d="M383.904 843.504L404.341 804.752L424.779 766" stroke="white" stroke-opacity="0.25" stroke-width="4" stroke-linecap="round"/>
<path d="M383.904 843.504L404.341 804.752L424.779 766" stroke="white" stroke-opacity="0.25" stroke-width="4" stroke-linecap="round"/>
<path d="M245.904 1000.5L266.341 961.752L286.779 923" stroke="white" stroke-opacity="0.25" stroke-width="4" stroke-linecap="round"/>
<path d="M522.904 606.504L543.341 567.752L563.779 529" stroke="white" stroke-opacity="0.25" stroke-width="4" stroke-linecap="round"/>
<path d="M598.904 987.504L619.341 948.752L639.779 910" stroke="white" stroke-opacity="0.25" stroke-width="4" stroke-linecap="round"/>
<path d="M799.904 948.504L820.341 909.752L840.779 871" stroke="white" stroke-opacity="0.25" stroke-width="4" stroke-linecap="round"/>
<path d="M1174.9 989.504L1195.34 950.752L1215.78 912" stroke="white" stroke-opacity="0.25" stroke-width="4" stroke-linecap="round"/>
<path d="M430.904 963.504L451.341 924.752L471.779 886" stroke="white" stroke-opacity="0.25" stroke-width="4" stroke-linecap="round"/>
<path d="M418.904 449.504L439.341 410.752L459.779 372" stroke="white" stroke-opacity="0.25" stroke-width="4" stroke-linecap="round"/>
<path d="M287.904 173.504L308.341 134.752L328.779 96" stroke="white" stroke-opacity="0.25" stroke-width="4" stroke-linecap="round"/>
<path d="M1303.9 308.504L1324.34 269.752L1344.78 231" stroke="white" stroke-opacity="0.25" stroke-width="4" stroke-linecap="round"/>
<defs>
<linearGradient id="paint0_linear_55_1852" x1="720" y1="-3.14358e-05" x2="1453.43" y2="1001.26" gradientUnits="userSpaceOnUse">
<stop stop-color="#9AB8D3"/>
<stop offset="1" stop-color="#BED2E4" stop-opacity="0.5"/>
</linearGradient>
</defs>
</svg>
