<svg width="32" height="67" viewBox="0 0 32 67" fill="none" xmlns="http://www.w3.org/2000/svg">
<path fill-rule="evenodd" clip-rule="evenodd" d="M14.2286 1H17.7715C20.5329 1 22.7715 3.23858 22.7715 6V37.4857H23.7715L23.7715 6C23.7715 2.68629 21.0852 0 17.7715 0H14.2286C10.9149 0 8.22865 2.6863 8.22865 6V55.6857V56.6857H9.22865H22.7715H23.7715L8.22865 56.6857V37.4857H9.22865V6C9.22865 3.23858 11.4672 1 14.2286 1Z" fill="#70AFEA"/>
<path fill-rule="evenodd" clip-rule="evenodd" d="M8.22848 36.5716C3.32035 39.3041 0 44.5446 0 50.5607C0 59.3973 7.16344 66.5607 16 66.5607C24.8366 66.5607 32 59.3973 32 50.5607C32 44.5446 28.6796 39.3039 23.7713 36.5715V37.7283C28.1048 40.3582 31 45.1214 31 50.5607C31 58.845 24.2843 65.5607 16 65.5607C7.71573 65.5607 1 58.845 1 50.5607C1 45.1214 3.89513 40.3584 8.22848 37.7284V36.5716Z" fill="#70AFEA"/>
<ellipse cx="16.044" cy="50.1476" rx="9.87756" ry="10.6374" fill="#70AFEA"/>
<path d="M12.245 23.5541C12.245 21.456 13.9459 19.7551 16.044 19.7551V19.7551C18.1422 19.7551 19.8431 21.456 19.8431 23.5541V40.27C19.8431 42.3682 18.1422 44.0691 16.044 44.0691V44.0691C13.9459 44.0691 12.245 42.3682 12.245 40.27V23.5541Z" fill="#70AFEA"/>
</svg>
