<svg width="22" height="44" viewBox="0 0 22 44" fill="none" xmlns="http://www.w3.org/2000/svg">
<path fill-rule="evenodd" clip-rule="evenodd" d="M14.6429 5.11404V24.6677H15.6429L15.6429 37.3024V36.3024V5.11404C15.6429 2.28964 13.3533 0 10.5289 0C7.70449 0 5.41486 2.28963 5.41486 5.11404V24.6677H6.41486V5.11404C6.41486 2.84192 8.25677 1 10.5289 1C12.801 1 14.6429 2.84192 14.6429 5.11404Z" fill="black"/>
<path fill-rule="evenodd" clip-rule="evenodd" d="M5.41487 24.0661C2.18501 25.8642 0 29.3128 0 33.2718C0 39.0868 4.71396 43.8007 10.5289 43.8007C16.3439 43.8007 21.0578 39.0868 21.0578 33.2718C21.0578 29.3128 18.8728 25.8642 15.643 24.0661V25.2301C18.2973 26.9216 20.0578 29.8911 20.0578 33.2718C20.0578 38.5345 15.7916 42.8007 10.5289 42.8007C5.26624 42.8007 1 38.5345 1 33.2718C1 29.8911 2.76057 26.9216 5.41487 25.2301V24.0661Z" fill="black"/>
<ellipse cx="10.5579" cy="33" rx="6.5" ry="7" fill="black"/>
<path d="M8.05786 15.5C8.05786 14.1193 9.17715 13 10.5579 13V13C11.9386 13 13.0579 14.1193 13.0579 15.5V26.5C13.0579 27.8807 11.9386 29 10.5579 29V29C9.17715 29 8.05786 27.8807 8.05786 26.5V15.5Z" fill="black"/>
</svg>
