<svg width="66" height="59" viewBox="0 0 66 59" fill="none" xmlns="http://www.w3.org/2000/svg">
<path d="M2 32.6608H48.1859C49.0923 32.6608 49.9979 32.6045 50.8783 32.3893C56.3216 31.0593 64.6147 26.4483 63.7041 16.1794C63.6132 15.1541 63.5422 14.1187 63.4077 13.0983C62.8647 8.97978 59.909 2.74693 50.9669 2.04174C40.8108 1.24081 39.0603 12.1646 39.4546 17.7267" stroke="#70AFEA" stroke-width="3" stroke-linecap="round"/>
<path d="M15.8817 26.0906H46.0045C47.8448 26.0906 49.6949 25.8385 51.3507 25.0352C55.5719 22.9873 60.3223 19.0774 57.2278 14.071C55.2253 10.74 50.5773 6.05745 46.2201 10.1938C44.6641 11.6709 43.8218 13.897 44.279 15.9933C44.6388 17.6427 45.672 18.9099 48.0664 18.0776C53.0056 16.3605 51.0936 15.7064 50.058 14.6434" stroke="#70AFEA" stroke-width="3" stroke-linecap="round"/>
<path d="M2 40.691H16.6937C19.0758 40.691 21.5184 41.0783 23.4076 42.5293C26.6117 44.9901 28.9027 48.976 24.7078 53.774C22.2458 56.5899 17.7696 57.9694 15.0273 55.4256C14.6845 55.1076 14.3805 54.7467 14.1322 54.3389C12.0577 50.9326 18.5231 44.8555 19.567 48.7047C19.7233 49.2812 19.702 50.0783 19.4312 51.1546" stroke="#70AFEA" stroke-width="3" stroke-linecap="round"/>
<path d="M33.2336 40.691H47.9273C50.3094 40.691 52.752 41.0783 54.6412 42.5293C57.8453 44.9901 60.1363 48.976 55.9414 53.774C53.4794 56.5899 49.0032 57.9694 46.261 55.4256C45.9181 55.1076 45.6142 54.7467 45.3658 54.3389C43.2913 50.9326 49.7567 44.8555 50.8006 48.7047C50.9569 49.2812 50.9357 50.0783 50.6649 51.1546" stroke="#70AFEA" stroke-width="3" stroke-linecap="round"/>
</svg>
