<svg width="33" height="28" viewBox="0 0 33 28" fill="none" xmlns="http://www.w3.org/2000/svg">
<path d="M1 15.1573H22.796C23.6583 15.1573 24.5259 15.1165 25.3518 14.8682C27.7719 14.1408 30.8899 12.2353 30.9972 8.45646C31.0278 7.37528 30.941 6.26943 30.6251 5.23498C30.0746 3.43281 28.4858 1.29708 24.7807 1.01927C19.8484 0.649451 18.9983 5.69343 19.1897 8.26164" stroke="black" stroke-width="2" stroke-linecap="round"/>
<path d="M7.74158 12.1236H21.0715C22.8267 12.1236 24.632 11.9485 26.1194 11.0166C27.7477 9.99651 29.0426 8.45227 27.8213 6.57365C27.1005 5.43376 25.6741 3.95111 24.1225 4.03728C21.898 4.16082 20.6114 8.71831 22.8321 8.53969C22.9939 8.52668 23.1733 8.48931 23.372 8.42363C25.7707 7.63078 24.8422 7.32874 24.3392 6.83793" stroke="black" stroke-width="2" stroke-linecap="round"/>
<path d="M1 18.8652H6.44106C8.71758 18.8652 11.3234 19.0413 12.6068 20.9216C13.3098 21.9517 13.4429 23.256 12.1806 24.734C10.9261 26.2029 8.94735 26.9621 7.43549 25.7599V25.7599C5.74921 24.4189 9.56295 20.7745 9.57879 22.9289C9.58035 23.1415 9.54516 23.3954 9.46543 23.6966" stroke="black" stroke-width="2" stroke-linecap="round"/>
<path d="M16.1685 18.8652H21.6096C23.8861 18.8652 26.4919 19.0413 27.7753 20.9216C28.4783 21.9517 28.6115 23.256 27.3491 24.734C26.0946 26.2029 24.1159 26.9621 22.604 25.7599V25.7599C20.9177 24.4189 24.7315 20.7745 24.7473 22.9289C24.7489 23.1415 24.7137 23.3954 24.634 23.6966" stroke="black" stroke-width="2" stroke-linecap="round"/>
</svg>
